<?xml version="1.0" standalone="no"?>
<!DOCTYPE svg PUBLIC "-//W3C//DTD SVG 20010904//EN"
 "http://www.w3.org/TR/2001/REC-SVG-20010904/DTD/svg10.dtd">
<svg version="1.0" xmlns="http://www.w3.org/2000/svg"
 width="860.000000pt" height="860.000000pt" viewBox="0 0 860.000000 860.000000"
 preserveAspectRatio="xMidYMid meet">
<metadata>
Created by potrace 1.11, written by Peter Selinger 2001-2013
</metadata>
<g transform="translate(0.000000,860.000000) scale(0.100000,-0.100000)"
fill="#000000" stroke="none">
<path d="M8471 5973 c0 -6 -4 -20 -7 -30 -5 -14 -4 -15 5 -7 7 7 11 20 8 30
-3 11 -5 14 -6 7z"/>
<path d="M8451 5897 c-1 -10 -8 -20 -16 -23 -8 -4 -15 -14 -15 -24 0 -10 -10
-20 -22 -24 -17 -4 -20 -8 -11 -17 9 -9 8 -20 -5 -45 -8 -19 -19 -34 -24 -34
-4 0 -8 -9 -8 -19 0 -11 -7 -21 -17 -23 -10 -2 -16 -14 -17 -33 -1 -37 -135
-265 -151 -259 -7 3 -18 -2 -25 -11 -12 -14 -11 -18 0 -25 12 -7 12 -10 -2
-15 -27 -10 -38 3 -33 38 l5 32 -13 -33 c-7 -18 -19 -37 -27 -42 -13 -9 -13
-11 0 -20 8 -5 23 -7 33 -4 33 10 1 -33 -38 -52 -27 -13 -34 -21 -30 -35 5
-15 -11 -37 -62 -88 -71 -70 -138 -106 -153 -81 -5 8 -9 5 -12 -8 -5 -17 -17
-21 -71 -27 -36 -4 -71 -3 -79 1 -7 5 -22 7 -34 6 -11 -2 -33 2 -50 9 -16 7
-43 13 -60 15 -17 1 -49 10 -70 19 -37 15 -38 17 -20 30 16 12 17 16 4 28 -12
12 -17 12 -32 1 -11 -7 -15 -18 -10 -25 5 -9 2 -10 -10 -6 -10 4 -20 7 -22 7
-2 0 -4 7 -4 15 0 8 5 15 10 15 6 0 10 5 10 10 0 6 -14 10 -31 10 -24 0 -30
-4 -25 -15 7 -20 4 -19 -54 10 l-50 25 0 80 c0 47 4 80 10 80 18 0 10 19 -11
25 -25 8 -51 -11 -31 -24 18 -11 5 -141 -14 -141 -8 0 -14 4 -14 10 0 5 -6 7
-13 4 -7 -2 -31 -1 -52 4 -33 7 -40 12 -38 31 2 13 -1 20 -7 16 -6 -3 -10 -12
-10 -19 0 -8 -13 -13 -30 -14 -17 0 -39 -4 -50 -7 -17 -5 -20 -2 -21 22 l-1
28 -10 -29 c-8 -21 -13 -25 -19 -15 -7 11 -9 10 -9 -3 0 -11 -14 -24 -32 -31
-29 -12 -34 -12 -40 2 -6 14 -7 14 -7 -1 -1 -9 -10 -20 -21 -23 -11 -3 -20
-10 -20 -14 0 -5 -24 -27 -53 -50 -59 -45 -108 -54 -126 -23 -10 16 -10 16
-11 0 0 -10 -4 -18 -10 -18 -23 0 -7 -21 20 -26 17 -4 30 -8 30 -9 0 -2 -26
-28 -57 -59 -54 -51 -58 -54 -65 -33 -5 18 -6 17 -7 -10 -1 -25 -15 -45 -68
-98 -63 -62 -158 -124 -171 -111 -11 12 -14 113 -3 120 21 13 11 26 -19 26
-31 0 -37 -9 -19 -27 7 -7 8 -31 4 -68 -7 -54 -22 -74 -44 -61 -5 4 -58 9
-117 12 -59 2 -113 9 -120 15 -7 6 -15 25 -17 42 l-4 32 -1 -32 c-1 -21 -7
-33 -16 -33 -8 0 -16 -7 -20 -15 -4 -10 -20 -15 -50 -15 -48 0 -70 17 -42 32
21 12 11 28 -18 28 -29 0 -39 -10 -25 -26 20 -24 -2 -34 -72 -34 -65 0 -69 1
-70 23 -1 21 -1 21 -8 -3 -6 -21 -13 -25 -46 -25 -22 0 -43 -3 -46 -7 -3 -5
-17 -2 -32 5 -32 15 -55 61 -39 80 8 10 7 17 -6 28 -16 13 -20 13 -37 -3 -19
-19 -19 -19 1 -24 25 -7 48 -62 33 -80 -7 -9 -5 -15 7 -22 15 -8 9 -14 -37
-38 -30 -16 -57 -30 -61 -32 -5 -2 -9 14 -9 35 -1 39 -3 35 -14 -29 -5 -32
-15 -44 -73 -84 -72 -51 -186 -114 -206 -114 -12 0 -36 54 -36 83 0 9 5 17 10
17 6 0 10 5 10 10 0 6 -17 10 -37 10 -33 -1 -36 -2 -21 -13 12 -9 16 -25 13
-53 -2 -32 -1 -33 4 -9 l6 30 13 -34 c7 -19 11 -35 10 -37 -12 -10 -130 -6
-148 6 -13 8 -12 11 4 23 19 14 19 15 -1 21 -12 4 -24 17 -26 29 -4 18 -5 17
-6 -5 0 -16 -5 -28 -11 -28 -5 0 -10 -4 -10 -10 0 -5 7 -10 15 -10 8 0 15 -5
15 -11 0 -6 -8 -8 -17 -6 -10 3 -34 8 -55 11 -46 8 -57 33 -22 46 21 8 24 13
14 25 -15 18 4 55 29 55 10 0 26 9 36 20 17 18 17 20 0 26 -19 8 -85 -20 -85
-36 0 -5 4 -10 10 -10 16 0 -11 -49 -31 -55 -10 -3 -16 -12 -13 -19 6 -15 -36
-36 -71 -36 -27 0 -32 9 -14 27 16 16 -25 27 -50 14 -14 -8 -21 -8 -24 2 -3 6
-6 2 -6 -9 -1 -26 -19 -34 -70 -34 -20 0 -41 -4 -46 -9 -15 -14 -75 -24 -75
-13 0 6 5 12 12 14 17 6 0 28 -22 28 -26 0 -36 -21 -16 -32 23 -13 20 -23 -9
-36 -44 -20 -55 -15 -57 26 l-1 37 -6 -44 c-5 -40 -11 -47 -54 -73 -50 -29
-52 -28 -60 22 -3 15 -5 8 -6 -17 -1 -39 -5 -45 -53 -78 -45 -30 -54 -33 -57
-18 -2 9 5 23 15 31 14 10 15 16 7 19 -7 3 -13 11 -13 19 0 10 -7 7 -22 -8
-14 -14 -18 -23 -10 -26 7 -2 12 -17 12 -33 0 -23 -11 -38 -57 -74 -32 -26
-66 -51 -76 -56 -16 -9 -18 -8 -12 10 5 18 2 21 -24 21 -33 0 -39 -8 -20 -27
20 -20 -14 -57 -89 -96 -38 -20 -78 -37 -89 -37 -10 0 -23 -4 -28 -9 -6 -5
-25 -12 -42 -16 -30 -6 -33 -4 -33 17 l0 23 -13 -25 c-10 -21 -21 -26 -60 -28
-44 -3 -61 8 -37 23 20 12 9 25 -20 25 -19 0 -30 -5 -30 -14 0 -24 -43 -26
-108 -5 -50 17 -61 24 -52 34 9 10 6 16 -9 25 -12 6 -22 21 -22 33 -1 16 -3
15 -8 -8 -5 -23 -12 -31 -32 -33 -41 -5 -79 14 -79 40 0 17 -3 19 -9 9 -7 -11
-9 -11 -14 0 -3 8 -6 4 -6 -9 -1 -21 -5 -23 -49 -20 -46 3 -47 4 -50 40 l-3
36 41 -1 c24 -1 45 -8 50 -17 14 -21 13 5 0 31 -9 15 -7 21 5 25 8 3 15 11 15
16 0 9 -129 1 -140 -9 -3 -2 3 -9 12 -14 12 -7 15 -19 11 -51 -3 -24 -8 -46
-12 -49 -3 -4 -27 -10 -53 -13 -39 -6 -48 -4 -48 8 0 8 6 16 12 18 8 3 4 10
-11 17 -19 11 -26 10 -38 -2 -14 -13 -13 -16 6 -22 23 -7 29 -35 7 -35 -8 0
-21 -3 -30 -6 -13 -5 -16 3 -18 42 l-1 49 -6 -50 -6 -49 -70 -34 c-62 -30 -70
-32 -81 -18 -10 15 -12 14 -17 -4 -3 -11 -13 -20 -22 -20 -14 0 -16 6 -11 28
4 15 16 39 26 54 26 36 25 38 -10 38 -31 0 -37 -9 -19 -27 15 -15 -9 -81 -33
-94 -15 -8 -16 -13 -5 -30 10 -18 8 -23 -16 -45 -18 -15 -40 -24 -61 -24 -39
0 -50 -8 -35 -26 9 -11 5 -16 -15 -24 -15 -5 -24 -15 -20 -23 6 -16 -111 -121
-125 -113 -5 4 -11 0 -14 -6 -2 -7 -8 -10 -12 -6 -4 4 3 16 16 27 l24 19 -27
7 c-35 9 -53 -2 -37 -21 17 -21 -5 -91 -31 -99 -11 -4 -20 -11 -20 -16 0 -21
-177 -162 -192 -153 -13 8 -9 42 5 47 27 9 -5 19 -63 19 -63 0 -84 -7 -61 -21
10 -7 12 -22 7 -63 -8 -59 -17 -69 -89 -94 -33 -12 -42 -12 -49 -2 -11 18 -10
78 2 78 6 0 10 5 10 10 0 6 -16 10 -35 10 -35 0 -47 -13 -21 -23 10 -4 12 -18
9 -54 -6 -54 -17 -73 -43 -73 -20 0 -45 56 -29 65 19 12 8 25 -22 25 -25 0
-29 -3 -24 -19 6 -21 -3 -51 -16 -51 -4 0 -6 7 -3 15 5 11 -1 15 -25 15 -26 0
-30 -4 -28 -22 1 -15 -5 -26 -21 -33 -12 -5 -20 -16 -17 -23 2 -7 -6 -17 -19
-22 -13 -5 -27 -14 -31 -19 -3 -6 -19 -10 -34 -9 -23 2 -27 6 -23 25 2 13 8
23 13 23 5 0 9 5 9 10 0 12 -57 13 -64 1 -3 -5 0 -11 8 -14 9 -3 12 -15 9 -31
-5 -22 -11 -26 -39 -26 -33 0 -126 16 -154 27 -8 3 -24 6 -35 7 -13 1 -22 10
-26 31 l-7 30 -2 -30 c-1 -17 -4 -24 -7 -15 -11 26 -27 37 -48 32 -27 -5 -55
25 -36 38 11 6 9 10 -7 19 -23 12 -48 74 -32 79 18 6 11 20 -15 26 -16 4 -22
11 -19 21 5 11 -2 15 -25 15 -17 0 -31 -4 -31 -10 0 -5 5 -10 10 -10 6 0 10
-11 10 -25 0 -18 4 -23 15 -19 32 13 71 -59 43 -78 -9 -7 -9 -11 -2 -14 30
-12 43 -30 38 -50 -5 -18 -15 -22 -67 -27 -37 -3 -64 -1 -68 5 -4 6 -8 4 -12
-5 -3 -8 -26 -17 -54 -21 -39 -5 -50 -3 -61 11 -11 16 -12 16 -12 0 0 -9 -7
-17 -16 -17 -12 0 -15 6 -10 23 3 12 6 27 6 32 0 6 5 3 11 -5 8 -11 9 -7 4 18
-4 20 -3 32 4 32 6 0 11 5 11 10 0 6 -13 10 -30 10 -29 0 -40 -13 -20 -25 6
-4 7 -28 4 -61 -6 -46 -4 -54 10 -54 9 0 16 -4 16 -10 0 -5 -9 -10 -20 -10
-11 0 -20 -4 -20 -9 0 -15 -136 -70 -212 -86 -89 -18 -88 -18 -88 0 0 8 -6 15
-14 15 -8 0 -17 12 -19 28 l-4 27 -2 -27 c0 -16 -5 -28 -11 -28 -5 0 -10 -7
-10 -15 0 -8 -9 -15 -20 -15 -38 0 -21 -27 21 -33 49 -6 56 -12 39 -32 -10
-12 -8 -16 14 -25 17 -6 26 -16 24 -27 -2 -14 5 -19 36 -21 47 -4 60 6 40 32
-8 11 -14 14 -14 8 0 -7 -12 -12 -26 -12 -22 0 -25 4 -21 21 4 15 0 23 -14 26
-30 8 -17 28 21 31 46 5 78 -5 83 -26 2 -9 3 -7 2 6 -3 26 20 42 59 42 20 0
26 -5 27 -22 0 -13 3 -18 5 -12 7 17 55 4 52 -14 -3 -18 24 -27 50 -17 16 6
15 8 -2 20 -15 11 -17 22 -13 51 8 50 20 59 75 59 42 0 47 2 45 22 -2 18 7 25
59 42 66 22 187 28 231 12 20 -8 25 -18 31 -66 5 -48 4 -60 -11 -70 -17 -12
-16 -14 9 -20 34 -9 53 1 38 20 -6 8 -9 33 -7 57 2 24 2 35 0 25 -6 -24 -23
-11 -23 18 0 22 3 24 33 19 55 -10 56 -11 60 -71 l3 -58 2 58 2 57 34 0 c52 0
96 -11 96 -25 0 -8 -9 -10 -25 -7 -37 7 -60 -5 -46 -22 17 -21 3 -84 -21 -97
-16 -8 -23 -8 -29 2 -5 9 -8 -16 -7 -61 2 -69 2 -71 5 -17 4 57 10 66 30 46 8
-8 17 -7 34 1 19 11 20 14 8 24 -8 6 -13 22 -11 34 3 20 8 23 29 17 13 -3 34
-3 46 1 20 6 20 7 3 20 -14 9 -16 20 -11 43 8 36 22 48 38 32 9 -9 8 -17 -1
-31 -11 -17 -10 -21 5 -27 10 -4 22 -12 26 -20 10 -16 43 -17 53 -2 3 6 1 15
-5 19 -7 4 -10 18 -8 31 2 13 2 18 0 11 -7 -19 -47 -10 -51 11 -3 13 3 17 23
17 14 0 63 12 108 26 45 14 101 31 125 38 l42 13 2 -41 1 -41 6 45 c4 32 11
46 24 48 20 4 25 -34 5 -40 -17 -6 0 -28 22 -28 23 0 37 20 21 29 -8 5 -9 15
-2 32 13 34 35 51 73 54 48 4 48 4 48 18 0 11 78 57 95 57 3 0 5 -9 5 -20 0
-11 -4 -20 -10 -20 -15 0 -12 -17 5 -24 20 -7 62 8 47 18 -17 10 -15 36 3 36
8 0 15 5 15 10 0 6 12 10 26 10 23 0 25 -3 20 -26 -5 -17 -3 -23 4 -19 5 3 10
13 10 21 0 8 7 17 16 21 8 3 13 12 10 19 -3 9 4 16 19 20 28 7 32 19 10 28
-21 8 -4 40 39 75 17 14 53 46 79 70 26 25 58 46 70 47 12 1 25 3 29 3 4 1 7
11 5 22 -1 12 4 24 11 26 9 4 11 -6 6 -39 -4 -23 -3 -40 1 -36 4 4 12 31 16
60 8 48 14 58 66 105 32 29 61 52 65 53 3 0 22 16 41 35 33 33 37 34 87 28 40
-5 56 -3 64 9 6 8 19 17 30 21 14 6 16 10 6 22 -13 16 -57 5 -53 -14 2 -6 -8
-11 -22 -11 -14 0 -25 2 -25 4 0 12 66 49 94 53 17 2 38 11 46 22 29 35 79 37
81 2 0 -13 2 -13 6 -1 19 52 72 68 74 23 l1 -28 7 30 c6 29 8 30 61 27 57 -3
169 -34 207 -58 25 -16 30 -53 11 -72 -16 -16 31 -34 51 -19 11 9 10 14 -8 25
-11 8 -21 23 -21 34 0 16 5 19 23 15 12 -3 39 -9 60 -13 26 -4 41 -14 47 -28
7 -17 9 -18 9 -3 1 20 46 24 54 5 4 -10 6 -10 6 0 2 21 31 13 41 -10 7 -18 9
-19 9 -5 1 11 9 17 26 17 14 0 36 7 49 15 13 9 40 16 60 17 20 1 39 5 42 10
12 18 24 6 25 -24 0 -27 2 -30 9 -13 8 19 8 19 19 -5 10 -22 10 -19 5 17 -5
34 -2 44 11 49 9 4 21 2 28 -5 13 -13 56 -14 76 -2 11 7 10 11 -5 19 -16 9
-16 12 -4 27 7 9 22 21 32 26 16 9 21 4 34 -27 12 -28 13 -39 3 -44 -16 -10
-2 -30 21 -30 23 0 37 20 21 29 -13 9 4 111 19 111 14 0 23 -60 10 -75 -15
-18 4 -29 38 -20 25 6 26 8 9 20 -15 11 -17 21 -10 76 8 62 9 64 67 111 42 34
63 45 72 38 8 -8 13 -5 17 9 4 18 61 61 80 61 4 0 7 -8 8 -17 1 -12 4 -9 8 7
4 14 23 34 46 47 48 27 52 28 58 6 4 -15 5 -14 6 3 1 12 12 26 26 32 37 17 43
15 48 -15 l4 -28 2 27 c0 15 9 31 19 36 25 13 121 24 135 15 6 -4 26 -6 44 -4
18 1 33 -2 33 -8 0 -12 -36 -24 -50 -16 -6 4 -10 -5 -9 -22 0 -15 3 -22 6 -15
8 19 35 15 31 -5 -2 -10 -10 -17 -16 -16 -7 2 -12 -6 -12 -17 0 -11 -4 -20
-10 -20 -5 0 -10 -4 -10 -10 0 -5 13 -10 30 -10 27 0 29 2 24 29 -5 21 -1 34
15 50 11 11 18 27 15 35 -9 23 7 25 89 9 66 -14 77 -19 78 -37 1 -17 2 -17 6
-3 3 13 15 17 48 17 24 0 47 -4 50 -10 4 -6 13 -5 25 3 29 17 55 -3 54 -41 -1
-22 4 -32 21 -40 19 -9 25 -8 29 5 6 14 -2 26 -25 35 -4 2 -9 13 -13 24 -6 20
0 24 63 43 38 12 72 21 76 21 3 0 3 -17 0 -37 -5 -34 -4 -35 5 -13 11 23 12
24 22 6 6 -10 8 -33 5 -52 -5 -32 -4 -34 24 -34 16 0 29 5 29 10 0 6 -4 10
-10 10 -5 0 -10 7 -10 17 0 9 -3 13 -7 9 -4 -4 -13 14 -20 41 -8 30 -9 49 -3
51 6 2 10 9 10 15 0 13 63 57 80 57 5 0 10 4 10 10 0 12 120 100 136 100 7 0
15 -8 18 -17 3 -11 4 -7 3 7 -1 16 3 25 13 25 8 0 20 5 25 11 17 20 88 39 93
25 3 -9 8 -9 17 -1 10 8 15 8 20 0 4 -6 5 -12 4 -13 -56 -29 -63 -47 -19 -47
26 0 30 3 25 19 -3 11 -1 22 5 26 5 3 10 -2 11 -12 1 -12 3 -10 8 7 5 18 15
26 36 28 27 3 28 2 13 -10 -12 -9 -16 -21 -12 -36 6 -20 8 -20 18 -7 6 9 21
17 34 18 13 1 22 8 22 18 0 22 84 36 106 18 11 -9 14 -9 14 1 0 21 240 7 256
-14 11 -15 12 -15 18 -1 9 25 26 7 26 -27 0 -26 -2 -29 -15 -18 -13 11 -14 8
-9 -18 4 -17 1 -32 -5 -36 -17 -11 -3 -26 23 -26 30 0 39 10 21 24 -18 14 -9
106 11 106 7 0 15 -8 17 -17 4 -14 5 -13 6 4 1 17 9 24 39 29 20 4 54 15 74
25 21 11 46 19 57 19 19 0 20 -5 17 -57 -2 -32 -2 -46 1 -30 4 23 9 27 39 27
37 0 40 6 20 33 -8 10 -12 26 -9 37 4 13 -1 20 -19 23 l-23 4 22 8 c12 4 25
15 28 24 10 31 183 194 200 187 10 -3 15 1 15 12 0 10 14 31 30 47 28 27 30
28 30 7 0 -11 -8 -25 -17 -31 -16 -9 -16 -11 -3 -26 14 -14 18 -14 35 1 14 11
16 17 8 20 -7 3 -13 22 -13 43 0 33 5 40 39 59 22 13 56 22 80 22 22 0 41 5
41 10 0 6 -5 10 -12 10 -22 0 6 18 39 25 28 5 32 4 27 -9 -5 -12 1 -16 24 -16
17 0 32 5 34 11 5 16 88 -10 88 -28 0 -8 5 -11 11 -7 16 10 2 -98 -14 -108 -9
-6 -8 -11 3 -18 19 -12 22 -12 40 1 11 8 12 12 3 16 -15 6 -17 71 -3 93 7 12
12 12 22 2 6 -6 29 -12 49 -12 28 0 43 -6 57 -25 11 -13 22 -22 25 -18 4 3 9
-1 12 -9 4 -10 14 -14 26 -11 15 4 19 0 20 -18 1 -17 3 -19 6 -6 2 9 8 17 12
17 11 0 114 -31 125 -37 21 -13 231 -18 268 -7 10 3 18 -2 21 -13 4 -16 5 -16
6 -1 1 19 31 31 55 22 10 -4 16 -18 16 -38 l1 -31 13 30 c16 36 56 60 88 52
26 -7 62 11 41 20 -7 2 -13 11 -13 19 0 8 -7 14 -15 14 -18 0 -20 20 -2 21 6
0 41 33 77 74 36 40 68 74 72 74 4 1 9 -14 11 -31 3 -28 4 -27 5 10 2 30 11
57 33 88 17 25 33 43 35 41 11 -11 -9 -57 -27 -62 -20 -7 -26 -25 -9 -25 6 0
15 -10 20 -22 9 -23 9 -23 9 -2 1 12 9 25 18 28 13 6 14 9 4 15 -19 12 -3 82
20 88 21 6 25 18 9 28 -10 6 -3 21 56 125 58 102 174 327 174 338 0 7 -11 12
-25 12 -17 0 -29 7 -35 23 -7 17 -9 18 -9 4z m-1254 -694 c-3 -10 -5 -4 -5 12
0 17 2 24 5 18 2 -7 2 -21 0 -30z m-970 -475 c-3 -8 -6 -5 -6 6 -1 11 2 17 5
13 3 -3 4 -12 1 -19z m-457 -58 c0 -5 -4 -10 -9 -10 -6 0 -13 5 -16 10 -3 6 1
10 9 10 9 0 16 -4 16 -10z m-1790 -555 c0 -38 -15 -47 -25 -15 -6 18 8 50 21
50 2 0 4 -16 4 -35z m-66 -54 c-7 -44 -19 -53 -29 -21 -6 17 22 76 32 67 2 -3
1 -23 -3 -46z m-1724 -411 c0 -5 -4 -10 -10 -10 -5 0 -10 5 -10 10 0 6 5 10
10 10 6 0 10 -4 10 -10z m-310 -174 c0 -2 -3 -12 -6 -20 -5 -13 -9 -14 -20 -5
-20 16 -17 29 6 29 11 0 20 -2 20 -4z m-36 -37 c-8 -14 -24 -10 -24 6 0 9 6
12 15 9 8 -4 12 -10 9 -15z m60 6 c3 -9 0 -15 -9 -15 -8 0 -15 7 -15 15 0 8 4
15 9 15 5 0 11 -7 15 -15z m166 -5 c0 -5 -7 -10 -15 -10 -10 0 -15 -7 -13 -17
2 -13 -5 -19 -24 -21 -37 -4 -35 8 5 35 36 25 47 28 47 13z m-210 -38 c0 -6
-33 -31 -42 -32 -9 0 -11 34 -2 42 6 7 44 -2 44 -10z m90 -41 c0 -6 -4 -13
-10 -16 -5 -3 -10 1 -10 9 0 9 5 16 10 16 6 0 10 -4 10 -9z m-296 -46 c3 -8 1
-15 -4 -15 -6 0 -10 7 -10 15 0 8 2 15 4 15 2 0 6 -7 10 -15z m-100 -21 c9
-33 4 -37 -58 -58 -51 -16 -100 -22 -61 -7 12 5 20 17 20 31 0 13 6 25 13 27
7 3 10 -1 6 -10 -6 -17 21 -30 48 -21 15 4 17 9 7 20 -12 15 -6 44 10 44 5 0
12 -12 15 -26z m-981 -234 c-3 -11 -14 -20 -24 -20 -21 0 -26 26 -6 33 25 11
35 7 30 -13z"/>
<path d="M8100 5520 c-12 -8 -12 -10 3 -16 13 -4 16 -15 13 -43 -2 -20 -1 -26
1 -13 2 12 9 20 14 17 5 -4 9 3 9 14 0 11 5 23 10 26 6 4 8 11 5 16 -8 12 -36
11 -55 -1z"/>
<path d="M7065 5460 c-7 -11 17 -40 33 -40 12 0 24 29 16 41 -7 12 -41 11 -49
-1z"/>
<path d="M8141 5434 c0 -11 3 -14 6 -6 3 7 2 16 -1 19 -3 4 -6 -2 -5 -13z"/>
<path d="M6922 5431 c-10 -6 -10 -10 3 -21 8 -7 15 -19 15 -26 0 -8 4 -14 9
-14 5 0 12 -8 15 -17 2 -10 2 -2 -1 18 -3 23 0 40 7 44 9 6 9 10 -1 16 -17 11
-30 11 -47 0z"/>
<path d="M7101 5406 c-7 -9 -5 -17 9 -28 17 -15 20 -15 34 1 15 16 14 19 -8
29 -19 8 -27 8 -35 -2z"/>
<path d="M7072 5390 c0 -14 2 -19 5 -12 2 6 2 18 0 25 -3 6 -5 1 -5 -13z"/>
<path d="M6932 5330 c0 -19 2 -27 5 -17 2 9 2 25 0 35 -3 9 -5 1 -5 -18z"/>
<path d="M7061 5343 c-1 -27 -31 -37 -65 -22 -21 10 -29 10 -39 0 -15 -15 9
-33 37 -27 11 3 28 1 38 -5 20 -11 69 8 50 20 -5 3 -12 17 -15 31 -4 22 -4 22
-6 3z"/>
<path d="M7425 5340 c-19 -7 -19 -8 -2 -15 14 -6 17 -16 14 -49 -3 -22 -2 -32
0 -22 4 16 7 17 14 5 6 -10 9 -2 9 24 0 37 5 42 34 31 12 -5 14 -16 10 -52 -3
-33 -2 -41 5 -27 7 16 10 12 13 -25 4 -35 5 -29 6 27 1 47 6 73 15 76 20 7 -1
20 -36 22 -17 1 -39 5 -47 8 -8 3 -24 2 -35 -3z"/>
<path d="M6852 5332 c-7 -5 -10 -16 -7 -24 4 -11 -1 -18 -14 -23 -17 -5 -20
-12 -15 -33 8 -33 14 -41 14 -18 0 20 42 38 52 22 5 -6 8 -2 8 11 0 17 -4 21
-17 17 -10 -4 -5 5 12 20 17 14 25 25 18 26 -6 0 -17 2 -25 5 -7 3 -19 1 -26
-3z"/>
<path d="M7133 5290 c0 -30 2 -43 4 -27 2 15 2 39 0 55 -2 15 -4 2 -4 -28z"/>
<path d="M6495 5300 c-18 -7 -19 -8 -2 -15 12 -5 17 -20 19 -54 1 -36 2 -39 5
-13 4 33 12 39 29 22 8 -8 15 -6 23 4 10 12 9 18 -7 34 -25 25 -43 31 -67 22z"/>
<path d="M6991 5264 c0 -11 3 -14 6 -6 3 7 2 16 -1 19 -3 4 -6 -2 -5 -13z"/>
<path d="M7462 5220 c0 -14 2 -19 5 -12 2 6 2 18 0 25 -3 6 -5 1 -5 -13z"/>
<path d="M6562 5195 c0 -16 2 -22 5 -12 2 9 2 23 0 30 -3 6 -5 -1 -5 -18z"/>
<path d="M7422 5190 c0 -14 2 -19 5 -12 2 6 2 18 0 25 -3 6 -5 1 -5 -13z"/>
<path d="M7483 5195 c-7 -8 -13 -23 -13 -35 0 -11 -4 -20 -10 -20 -5 0 -10 -4
-10 -10 0 -5 14 -10 30 -10 28 0 40 13 22 24 -5 3 -7 19 -4 36 5 33 3 36 -15
15z"/>
<path d="M7676 5171 c5 -22 1 -34 -16 -51 -14 -14 -18 -26 -13 -31 14 -14 45
1 38 19 -3 8 -3 24 1 35 5 16 8 17 15 6 6 -10 9 -8 9 9 0 12 5 22 10 22 6 0
10 5 10 10 0 6 -13 10 -30 10 -27 0 -29 -2 -24 -29z"/>
<path d="M8221 5173 c0 -12 -4 -30 -7 -40 -5 -14 -4 -15 5 -7 7 6 11 24 8 40
-3 21 -4 23 -6 7z"/>
<path d="M6503 5085 c0 -44 2 -61 4 -37 2 23 2 59 0 80 -2 20 -4 1 -4 -43z"/>
<path d="M6572 5135 c0 -16 2 -22 5 -12 2 9 2 23 0 30 -3 6 -5 -1 -5 -18z"/>
<path d="M8182 5140 c0 -14 2 -19 5 -12 2 6 2 18 0 25 -3 6 -5 1 -5 -13z"/>
<path d="M7715 5103 c4 -21 3 -33 -4 -33 -18 0 -12 -18 8 -25 22 -7 53 4 45
16 -3 5 -1 9 4 9 11 0 62 43 62 53 0 4 -13 7 -30 7 -20 0 -30 -5 -30 -15 0
-21 -37 -19 -50 3 -9 13 -10 10 -5 -15z"/>
<path d="M7212 5040 c0 -14 2 -19 5 -12 2 6 2 18 0 25 -3 6 -5 1 -5 -13z"/>
<path d="M5528 5038 c7 -7 10 -34 7 -72 -3 -42 -2 -50 3 -26 l8 35 12 -30 c11
-27 11 -24 6 29 -4 43 -2 61 8 67 8 6 1 9 -21 9 -27 0 -32 -3 -23 -12z"/>
<path d="M7312 5025 c0 -16 2 -22 5 -12 2 9 2 23 0 30 -3 6 -5 -1 -5 -18z"/>
<path d="M8198 5037 c-5 -10 -8 -38 -8 -62 0 -24 -5 -45 -12 -47 -17 -6 0 -28
22 -28 22 0 37 19 22 29 -6 4 -12 33 -14 66 -2 39 -6 54 -10 42z"/>
<path d="M5340 5021 c0 -5 7 -17 16 -26 15 -14 17 -14 30 2 20 27 17 33 -16
33 -16 0 -30 -4 -30 -9z"/>
<path d="M7363 4973 c1 -22 -5 -48 -11 -56 -17 -20 0 -31 35 -22 19 4 23 9 14
18 -6 6 -11 29 -12 52 0 30 -2 35 -8 20 -8 -19 -9 -18 -14 5 -3 15 -5 9 -4
-17z"/>
<path d="M7288 4983 c-10 -3 -18 -8 -18 -12 0 -3 8 -13 18 -21 15 -14 19 -13
34 2 17 17 17 18 0 26 -9 5 -25 7 -34 5z"/>
<path d="M5319 4968 c-22 -8 -22 -10 -6 -19 9 -6 18 -22 18 -37 1 -27 1 -27 8
3 7 34 37 46 44 18 3 -12 5 -10 6 8 1 31 -29 42 -70 27z"/>
<path d="M7221 4948 c0 -20 -7 -38 -13 -41 -9 -3 -7 -11 8 -25 21 -20 21 -20
33 0 10 16 10 22 -3 31 -8 7 -17 26 -19 42 -4 27 -4 27 -6 -7z"/>
<path d="M6055 4961 c-3 -5 -1 -13 5 -16 14 -9 -6 -35 -26 -35 -16 0 -16 -6
-4 -35 5 -11 9 -15 9 -9 1 19 42 24 65 9 18 -12 24 -12 40 0 18 14 18 15 -6
24 -27 10 -43 37 -28 46 6 4 10 10 10 16 0 12 -57 12 -65 0z m44 -60 c-16 -5
-33 15 -24 30 6 9 12 7 22 -7 9 -13 10 -20 2 -23z"/>
<path d="M6712 4950 c0 -14 2 -19 5 -12 2 6 2 18 0 25 -3 6 -5 1 -5 -13z"/>
<path d="M6751 4954 c0 -11 3 -14 6 -6 3 7 2 16 -1 19 -3 4 -6 -2 -5 -13z"/>
<path d="M7631 4949 c-1 -29 -40 -62 -58 -51 -6 4 -13 21 -16 37 l-4 30 -2
-31 c0 -20 -8 -34 -18 -39 -17 -6 -17 -7 1 -21 17 -12 23 -12 42 1 30 20 33
19 44 -7 6 -16 9 -18 9 -7 1 9 8 20 17 23 12 4 13 10 6 19 -6 6 -12 26 -15 42
-4 28 -4 28 -6 4z"/>
<path d="M7830 4946 c0 -8 -6 -17 -12 -20 -10 -3 -9 -8 2 -18 9 -7 21 -24 28
-38 l13 -25 -5 24 c-3 14 -1 31 5 37 7 9 4 19 -10 33 -15 15 -21 17 -21 7z"/>
<path d="M5910 4941 c0 -6 5 -13 11 -17 7 -4 8 -23 4 -51 -4 -31 -3 -43 4 -38
6 3 11 20 11 36 0 19 4 28 11 23 6 -3 8 -15 5 -27 -10 -38 68 -90 88 -59 7 12
-31 52 -49 52 -20 0 -38 38 -31 66 6 21 3 24 -24 24 -16 0 -30 -4 -30 -9z"/>
<path d="M6723 4913 c-4 -10 -11 -21 -16 -24 -14 -10 1 -29 23 -29 24 0 29 9
23 43 -6 31 -20 35 -30 10z"/>
<path d="M7892 4895 c0 -16 2 -22 5 -12 2 9 2 23 0 30 -3 6 -5 -1 -5 -18z"/>
<path d="M7288 4890 c-4 -14 -8 -36 -7 -50 l0 -25 10 25 c5 13 9 36 7 50 l-3
25 -7 -25z"/>
<path d="M5392 4875 c0 -16 2 -22 5 -12 2 9 2 23 0 30 -3 6 -5 -1 -5 -18z"/>
<path d="M5523 4860 c0 -25 2 -35 4 -22 2 12 2 32 0 45 -2 12 -4 2 -4 -23z"/>
<path d="M5573 4865 c0 -22 2 -30 4 -17 2 12 2 30 0 40 -3 9 -5 -1 -4 -23z"/>
<path d="M5323 4795 c0 -38 2 -53 4 -32 2 20 2 52 0 70 -2 17 -4 1 -4 -38z"/>
<path d="M6132 4825 c0 -16 2 -22 5 -12 2 9 2 23 0 30 -3 6 -5 -1 -5 -18z"/>
<path d="M7242 4825 c0 -16 2 -22 5 -12 2 9 2 23 0 30 -3 6 -5 -1 -5 -18z"/>
<path d="M7562 4820 c0 -19 2 -27 5 -17 2 9 2 25 0 35 -3 9 -5 1 -5 -18z"/>
<path d="M7881 4835 c-1 -17 -3 -18 -12 -5 -8 11 -9 8 -5 -17 4 -22 1 -33 -10
-37 -21 -8 -8 -26 20 -26 28 0 39 10 27 24 -5 6 -11 27 -14 46 -2 19 -5 26 -6
15z"/>
<path d="M7612 4800 c0 -19 2 -27 5 -17 2 9 2 25 0 35 -3 9 -5 1 -5 -18z"/>
<path d="M5565 4806 c-18 -13 -18 -14 2 -24 15 -9 25 -8 38 2 18 13 18 14 -2
24 -15 9 -25 8 -38 -2z"/>
<path d="M5511 4794 c0 -12 -9 -25 -18 -28 -15 -6 -15 -8 -2 -22 17 -17 49 -9
49 12 0 8 -4 14 -9 14 -5 0 -12 10 -14 23 -4 21 -4 21 -6 1z"/>
<path d="M6142 4765 c0 -16 2 -22 5 -12 2 9 2 23 0 30 -3 6 -5 -1 -5 -18z"/>
<path d="M7271 4770 c-2 -23 -3 -24 -12 -5 -7 15 -8 10 -5 -22 3 -30 0 -43
-11 -47 -20 -8 -6 -26 21 -26 28 0 39 10 27 24 -5 6 -11 32 -14 56 -2 25 -5
34 -6 20z"/>
<path d="M7577 4723 c2 -30 0 -54 -6 -58 -21 -12 -11 -25 19 -25 30 0 40 13
20 25 -7 4 -9 25 -5 53 6 45 5 46 -9 22 l-14 -25 -5 30 c-2 17 -2 7 0 -22z"/>
<path d="M4445 4721 c-3 -5 -1 -12 5 -16 5 -3 11 -21 11 -38 1 -20 3 -25 6
-13 4 15 7 16 14 5 6 -10 9 -7 9 13 0 15 5 30 10 33 16 10 1 25 -25 25 -13 0
-26 -4 -30 -9z"/>
<path d="M5880 4645 c0 -8 -9 -19 -20 -25 -27 -15 -25 -30 4 -30 26 0 43 15
27 24 -5 3 -7 15 -4 26 3 11 3 20 -1 20 -3 0 -6 -7 -6 -15z"/>
<path d="M4265 4641 c-3 -5 -1 -12 5 -16 17 -11 11 -25 -15 -35 -24 -9 -35
-30 -15 -30 6 0 10 -10 11 -22 l0 -23 9 23 c5 12 14 22 21 22 6 0 8 7 5 16 -4
10 3 23 19 36 14 11 23 24 20 29 -8 12 -52 12 -60 0z"/>
<path d="M4490 4631 c0 -6 4 -13 10 -16 6 -3 7 1 4 9 -7 18 -14 21 -14 7z"/>
<path d="M4451 4614 c0 -11 3 -14 6 -6 3 7 2 16 -1 19 -3 4 -6 -2 -5 -13z"/>
<path d="M5781 4614 c0 -11 3 -14 6 -6 3 7 2 16 -1 19 -3 4 -6 -2 -5 -13z"/>
<path d="M4485 4580 c-4 -6 -15 -8 -26 -5 -23 8 -57 -9 -40 -19 6 -4 12 -22
12 -39 l1 -32 7 30 c8 39 56 59 76 32 12 -16 13 -16 17 7 6 31 -31 51 -47 26z"/>
<path d="M6350 4570 c-12 -8 -13 -12 -2 -19 9 -5 12 -20 7 -47 l-6 -39 15 30
c8 17 15 26 16 20 1 -5 6 3 10 19 13 43 -4 59 -40 36z"/>
<path d="M5466 4554 c-3 -11 -9 -25 -12 -31 -4 -9 4 -13 25 -13 36 0 38 6 12
39 -17 22 -18 22 -25 5z"/>
<path d="M5660 4560 c0 -5 11 -10 25 -10 14 0 25 5 25 10 0 6 -11 10 -25 10
-14 0 -25 -4 -25 -10z"/>
<path d="M6410 4532 c0 -30 -3 -41 -12 -36 -8 5 -9 0 -6 -14 4 -12 2 -25 -3
-28 -19 -11 -8 -24 21 -24 17 0 30 5 30 10 0 6 -5 10 -11 10 -8 0 -10 17 -7
49 3 28 1 56 -3 63 -6 8 -9 -3 -9 -30z"/>
<path d="M4027 4552 c-15 -3 -16 -6 -5 -19 7 -8 12 -32 11 -52 -2 -35 -1 -35
6 -6 l8 30 10 -25 c7 -15 7 -29 2 -34 -17 -19 -9 -26 30 -26 l39 0 -5 40 c-4
31 -2 41 11 46 34 13 1 40 -35 29 -15 -5 -16 -10 -7 -24 8 -13 8 -23 0 -37
-10 -17 -11 -17 -23 9 -10 22 -10 33 -1 47 9 15 8 19 -6 22 -9 2 -25 2 -35 0z
m80 -104 c-3 -7 -5 -2 -5 12 0 14 2 19 5 13 2 -7 2 -19 0 -25z"/>
<path d="M6253 4520 c0 -25 2 -35 4 -22 2 12 2 32 0 45 -2 12 -4 2 -4 -23z"/>
<path d="M5783 4523 c-10 -22 -10 -28 0 -35 16 -10 19 -10 37 2 13 9 13 12 -1
23 -9 6 -18 17 -20 24 -2 7 -10 0 -16 -14z"/>
<path d="M4310 4533 c0 -4 5 -15 10 -23 8 -13 10 -13 10 2 0 9 -4 20 -10 23
-5 3 -10 3 -10 -2z"/>
<path d="M5852 4500 c0 -19 2 -27 5 -17 2 9 2 25 0 35 -3 9 -5 1 -5 -18z"/>
<path d="M5273 4444 c-12 -12 -28 -24 -35 -27 -10 -4 -11 -7 0 -15 7 -5 10
-16 6 -28 -4 -11 8 -3 27 19 19 20 40 37 47 37 17 0 15 13 -5 26 -14 8 -23 6
-40 -12z"/>
<path d="M5812 4450 c0 -14 2 -19 5 -12 2 6 2 18 0 25 -3 6 -5 1 -5 -13z"/>
<path d="M6341 4446 c-1 -21 -40 -66 -58 -66 -8 0 -14 15 -15 38 l-1 37 -4
-35 c-2 -19 -11 -41 -20 -47 -15 -11 -15 -13 1 -19 24 -9 83 4 90 21 3 8 12
15 21 15 17 0 20 11 6 26 -5 5 -11 18 -14 29 -4 18 -5 18 -6 1z"/>
<path d="M5842 4425 c-2 -23 -4 -27 -12 -15 -7 11 -10 7 -10 -17 0 -18 -5 -33
-11 -33 -5 0 -7 -4 -4 -10 3 -5 19 -10 36 -10 16 0 29 5 29 10 0 6 -4 10 -9
10 -6 0 -12 21 -14 48 -2 27 -4 34 -5 17z"/>
<path d="M4022 4405 c0 -16 2 -22 5 -12 2 9 2 23 0 30 -3 6 -5 -1 -5 -18z"/>
<path d="M4926 4335 c-10 -8 -15 -18 -12 -23 6 -10 -15 -22 -39 -22 -8 0 -16
10 -18 23 -2 12 -2 -2 0 -30 3 -34 1 -53 -6 -53 -16 0 -13 -17 4 -24 24 -9 45
4 42 27 -1 14 6 25 21 32 13 6 20 16 17 23 -3 8 3 16 15 19 23 6 25 16 7 31
-8 7 -18 6 -31 -3z m-36 -75 c0 -5 -4 -10 -10 -10 -5 0 -10 5 -10 10 0 6 5 10
10 10 6 0 10 -4 10 -10z"/>
<path d="M5162 4315 c0 -16 2 -22 5 -12 2 9 2 23 0 30 -3 6 -5 -1 -5 -18z"/>
<path d="M4352 4300 c0 -19 2 -27 5 -17 2 9 2 25 0 35 -3 9 -5 1 -5 -18z"/>
<path d="M4410 4280 c0 -50 -12 -64 -36 -40 -8 8 -15 6 -23 -4 -11 -13 -8 -20
16 -40 24 -22 26 -27 13 -36 -13 -9 -13 -11 0 -20 19 -12 31 -12 50 0 12 8 12
10 -3 16 -15 5 -16 16 -11 90 4 46 4 84 0 84 -3 0 -6 -22 -6 -50z"/>
<path d="M2730 4281 c0 -6 4 -12 9 -16 5 -3 8 -31 6 -63 -3 -45 -2 -49 3 -17
7 37 8 39 20 20 11 -17 12 -15 7 23 -5 27 -3 42 4 42 6 0 11 5 11 10 0 6 -13
10 -30 10 -16 0 -30 -4 -30 -9z"/>
<path d="M5061 4264 c-15 -17 -15 -17 17 -33 16 -8 21 -18 17 -30 -3 -12 0
-21 10 -25 24 -9 45 4 42 27 -1 13 6 25 21 32 22 12 22 12 2 30 -11 10 -20 13
-20 7 0 -14 -52 -16 -65 -3 -6 6 -15 4 -24 -5z m70 -39 c-1 -15 -24 -12 -29 3
-3 9 2 13 12 10 10 -1 17 -7 17 -13z"/>
<path d="M4221 4248 c-1 -21 -7 -28 -31 -33 -33 -7 -35 -12 -16 -38 11 -14 15
-15 19 -4 3 8 20 17 39 21 29 6 31 8 16 19 -9 7 -18 24 -21 37 -4 25 -4 25 -6
-2z"/>
<path d="M3550 4241 c0 -6 4 -12 9 -15 5 -3 7 -16 3 -29 -5 -19 -3 -20 11 -9
13 11 16 10 20 -10 2 -13 3 -8 1 9 -1 18 2 35 7 38 19 12 8 25 -21 25 -16 0
-30 -4 -30 -9z"/>
<path d="M3115 4211 c-3 -5 -19 -12 -35 -16 -26 -6 -29 -10 -24 -33 8 -33 14
-41 14 -19 0 10 15 20 43 28 45 13 67 26 67 40 0 12 -57 12 -65 0z"/>
<path d="M4145 4102 c2 -77 -1 -105 -12 -114 -21 -17 0 -32 34 -23 24 6 26 8
12 18 -14 10 -15 22 -7 80 5 38 7 74 4 80 -2 7 -5 -2 -5 -20 -2 -60 -20 -45
-24 19 -2 35 -3 17 -2 -40z"/>
<path d="M2782 4160 c0 -14 2 -19 5 -12 2 6 2 18 0 25 -3 6 -5 1 -5 -13z"/>
<path d="M3162 4150 c0 -14 2 -19 5 -12 2 6 2 18 0 25 -3 6 -5 1 -5 -13z"/>
<path d="M3551 4154 c0 -11 3 -14 6 -6 3 7 2 16 -1 19 -3 4 -6 -2 -5 -13z"/>
<path d="M3602 4120 c0 -14 2 -19 5 -12 2 6 2 18 0 25 -3 6 -5 1 -5 -13z"/>
<path d="M3527 4119 c-12 -7 -15 -14 -9 -22 6 -7 12 -23 15 -37 l4 -25 2 27
c1 17 8 29 22 33 16 5 18 10 8 21 -14 17 -18 17 -42 3z"/>
<path d="M3593 4079 c-8 -8 -7 -15 6 -27 15 -16 17 -16 34 1 10 10 17 20 15
22 -12 10 -46 13 -55 4z"/>
<path d="M2551 4034 c0 -11 3 -14 6 -6 3 7 2 16 -1 19 -3 4 -6 -2 -5 -13z"/>
<path d="M2842 3945 c0 -16 2 -22 5 -12 2 9 2 23 0 30 -3 6 -5 -1 -5 -18z"/>
<path d="M2901 3959 c-1 -9 -8 -20 -17 -23 -11 -4 -13 -10 -6 -19 6 -8 6 -20
-1 -37 l-10 -25 -8 30 c-7 26 -8 24 -5 -12 3 -30 0 -43 -11 -47 -20 -8 -6 -26
21 -26 29 0 39 10 25 26 -15 18 -4 59 23 84 15 14 19 23 12 28 -6 4 -14 14
-17 22 -4 12 -6 12 -6 -1z"/>
<path d="M3742 3940 c0 -14 2 -19 5 -12 2 6 2 18 0 25 -3 6 -5 1 -5 -13z"/>
<path d="M3636 3897 c4 -30 2 -52 -5 -61 -16 -19 -5 -24 61 -24 55 0 85 12 56
23 -9 4 -13 19 -12 43 2 24 1 28 -3 12 -5 -23 -6 -24 -14 -5 -6 16 -8 14 -8
-12 -1 -35 -11 -46 -34 -37 -11 4 -14 16 -11 42 3 29 2 32 -5 17 l-10 -20 0
20 c-1 11 -6 27 -12 35 -7 11 -8 1 -3 -33z"/>
<path d="M3421 3878 c0 -20 -6 -40 -11 -43 -16 -10 -1 -25 25 -25 27 0 41 15
24 25 -6 4 -8 18 -4 33 5 22 4 24 -9 13 -12 -10 -15 -8 -19 11 -3 15 -5 10 -6
-14z"/>
<path d="M3342 3875 c0 -16 2 -22 5 -12 2 9 2 23 0 30 -3 6 -5 -1 -5 -18z"/>
<path d="M3230 3855 c-16 -20 25 -41 46 -25 7 7 12 16 9 20 -9 15 -44 18 -55
5z"/>
<path d="M3316 3819 c-17 -17 -17 -19 -2 -34 9 -9 16 -12 16 -6 0 6 7 11 15
11 18 0 19 9 2 31 -11 14 -14 14 -31 -2z"/>
<path d="M3262 3795 c0 -11 4 -31 8 -45 l8 -25 0 25 c0 14 -3 34 -8 45 l-9 20
1 -20z"/>
<path d="M3312 3740 c0 -14 2 -19 5 -12 2 6 2 18 0 25 -3 6 -5 1 -5 -13z"/>
<path d="M3283 3681 c1 -27 -3 -46 -11 -49 -7 -2 -10 -8 -6 -13 7 -12 51 -12
59 1 3 6 1 10 -4 10 -6 0 -11 17 -11 38 0 25 -3 33 -9 23 -7 -11 -10 -9 -14
10 -3 13 -5 4 -4 -20z"/>
<path d="M2307 3578 c3 -26 1 -38 -6 -38 -7 0 -9 -4 -6 -10 3 -5 19 -10 36
-10 16 0 29 5 29 10 0 6 -4 10 -10 10 -5 0 -12 11 -16 25 -3 14 -10 23 -14 20
-5 -3 -11 3 -14 12 -2 10 -2 1 1 -19z"/>
<path d="M802 3360 c0 -14 2 -19 5 -12 2 6 2 18 0 25 -3 6 -5 1 -5 -13z"/>
<path d="M970 3350 c0 -5 5 -10 11 -10 8 0 9 -11 5 -32 -4 -21 -3 -28 3 -19 7
11 9 11 14 0 3 -8 6 -2 6 13 1 15 6 30 11 33 20 12 9 25 -20 25 -16 0 -30 -4
-30 -10z"/>
<path d="M1085 3319 c0 -31 -6 -45 -25 -60 -26 -19 -24 -21 33 -23 26 -2 27 0
27 51 0 29 5 53 10 53 6 0 10 5 10 10 0 6 -12 10 -28 10 -25 0 -27 -3 -27 -41z
m25 -45 c0 -8 -4 -14 -10 -14 -5 0 -10 9 -10 21 0 11 5 17 10 14 6 -3 10 -13
10 -21z"/>
<path d="M1981 3324 c0 -11 3 -14 6 -6 3 7 2 16 -1 19 -3 4 -6 -2 -5 -13z"/>
<path d="M771 3303 c-13 -13 -19 -23 -13 -23 7 0 12 -7 12 -16 0 -14 2 -14 15
-1 8 9 20 18 27 20 9 4 10 8 2 14 -6 4 -13 13 -15 18 -2 6 -15 0 -28 -12z"/>
<path d="M2011 3295 c-1 -17 -3 -18 -11 -5 -8 12 -10 11 -10 -7 0 -12 -5 -25
-11 -29 -18 -11 18 -26 42 -19 14 5 17 10 10 18 -5 7 -11 23 -14 37 -3 19 -5
20 -6 5z"/>
<path d="M185 3260 c-3 -5 -1 -10 4 -10 27 0 -2 -96 -32 -104 -18 -5 -20 -8
-7 -16 8 -5 23 -10 32 -10 20 0 35 20 20 29 -11 7 -4 61 8 61 4 0 11 -17 15
-37 4 -21 10 -32 12 -26 3 7 -1 29 -8 50 -10 31 -9 38 5 48 8 7 13 15 9 18
-10 11 -51 8 -58 -3z"/>
<path d="M1585 3175 c3 -16 8 -45 12 -64 4 -22 2 -36 -7 -41 -17 -10 -4 -30
20 -30 22 0 39 22 22 28 -7 2 -12 19 -12 38 0 19 -4 34 -9 34 -4 0 -13 15 -19
33 l-12 32 5 -30z"/>
<path d="M372 2990 c0 -14 2 -19 5 -12 2 6 2 18 0 25 -3 6 -5 1 -5 -13z"/>
<path d="M475 2948 c-4 -18 -9 -36 -11 -40 -7 -11 -34 3 -34 17 0 8 -5 17 -11
21 -8 4 -9 0 -4 -15 4 -14 1 -23 -9 -27 -21 -8 -10 -24 15 -24 13 0 19 -6 17
-17 -3 -19 23 -29 49 -19 14 6 14 8 -2 20 -17 12 -17 17 -5 60 7 26 10 49 7
52 -3 3 -8 -10 -12 -28z"/>
<path d="M1172 2925 c0 -16 2 -22 5 -12 2 9 2 23 0 30 -3 6 -5 -1 -5 -18z"/>
<path d="M1150 2861 c-5 -11 -10 -34 -10 -51 0 -18 -6 -33 -15 -36 -23 -9 -7
-24 26 -24 29 0 38 13 18 25 -7 5 -8 25 -4 56 7 52 2 62 -15 30z"/>
</g>
</svg>
