<?xml version="1.0" standalone="no"?>
<!DOCTYPE svg PUBLIC "-//W3C//DTD SVG 20010904//EN"
 "http://www.w3.org/TR/2001/REC-SVG-20010904/DTD/svg10.dtd">
<svg version="1.0" xmlns="http://www.w3.org/2000/svg"
 width="1920.000000pt" height="1920.000000pt" viewBox="0 0 1920.000000 1920.000000"
 preserveAspectRatio="xMidYMid meet">
<metadata>
Created by potrace 1.11, written by Peter Selinger 2001-2013
</metadata>
<g transform="translate(0.000000,1920.000000) scale(0.100000,-0.100000)"
fill="#000000" stroke="none">
<path d="M8753 17822 c-28 -3 -48 -26 -185 -205 -219 -286 -339 -444 -443
-582 -50 -66 -126 -165 -168 -220 -42 -55 -142 -185 -222 -290 -346 -454 -356
-467 -985 -1290 -114 -148 -404 -529 -645 -845 -241 -316 -473 -620 -515 -675
-233 -304 -1228 -1609 -1399 -1833 -57 -76 -139 -183 -183 -239 -43 -57 -78
-105 -78 -108 0 -12 -83 -115 -93 -115 -6 0 -8 -3 -4 -6 3 -3 -3 -16 -14 -28
-11 -11 -46 -57 -78 -101 -32 -44 -67 -89 -78 -101 -12 -11 -32 -39 -46 -61
-15 -23 -38 -53 -52 -67 -14 -14 -23 -26 -20 -26 4 0 -1 -7 -9 -16 -9 -8 -42
-50 -73 -92 -32 -42 -64 -83 -71 -91 -8 -8 -32 -39 -55 -69 -22 -31 -48 -65
-58 -76 -10 -12 -57 -73 -106 -138 -116 -153 -290 -382 -372 -488 -36 -47
-108 -141 -161 -210 -140 -184 -221 -290 -465 -610 -121 -158 -254 -332 -295
-386 -41 -54 -140 -184 -220 -289 -80 -104 -291 -381 -470 -615 -178 -234
-346 -453 -372 -488 -27 -34 -46 -68 -42 -74 4 -6 3 -8 -3 -5 -14 9 -136 -150
-127 -165 4 -6 3 -8 -3 -5 -14 9 -37 -19 -27 -34 4 -7 3 -9 -4 -5 -13 8 -104
-112 -95 -127 3 -5 1 -7 -4 -4 -14 9 -37 -19 -27 -34 4 -7 3 -9 -4 -6 -13 9
-74 -72 -65 -86 3 -6 1 -7 -4 -4 -14 9 -37 -19 -27 -34 4 -7 3 -9 -3 -6 -14 9
-37 -19 -27 -34 4 -7 3 -9 -3 -6 -14 9 -37 -19 -27 -34 4 -7 3 -9 -3 -6 -14 9
-76 -70 -67 -85 4 -6 3 -8 -3 -5 -14 9 -37 -19 -27 -34 4 -7 3 -9 -3 -6 -14 9
-37 -19 -27 -34 4 -7 3 -9 -4 -6 -13 9 -74 -72 -65 -86 3 -6 1 -7 -5 -3 -13 8
-35 -28 -24 -39 4 -5 2 -5 -4 -2 -15 9 -38 -19 -28 -34 4 -7 3 -9 -3 -6 -14 9
-37 -19 -27 -34 4 -7 3 -9 -3 -6 -18 11 -38 -22 -26 -41 5 -9 21 -38 36 -64
14 -25 36 -63 49 -85 14 -21 28 -45 32 -53 4 -8 17 -31 29 -52 68 -112 94
-156 107 -180 8 -15 36 -64 63 -108 26 -44 47 -84 47 -89 0 -5 4 -11 8 -13 8
-3 101 -161 165 -278 17 -30 35 -62 42 -70 7 -8 26 -40 42 -70 16 -30 42 -74
56 -97 15 -24 27 -45 27 -47 0 -3 25 -45 55 -95 30 -49 67 -113 83 -143 16
-29 54 -93 84 -143 30 -49 73 -123 97 -162 25 -44 49 -73 59 -74 9 0 26 -2 37
-4 11 -1 45 -6 75 -9 30 -4 107 -14 170 -22 141 -19 162 -22 225 -29 28 -3 61
-7 75 -9 30 -5 96 -13 165 -21 28 -4 100 -13 160 -21 61 -9 133 -17 160 -20
28 -2 59 -6 70 -9 11 -2 47 -7 80 -10 33 -3 67 -8 75 -10 8 -2 40 -7 70 -10
59 -6 267 -33 312 -41 15 -2 49 -6 75 -9 27 -3 64 -7 83 -10 57 -7 282 -36
320 -41 19 -2 49 -6 65 -9 17 -2 55 -7 85 -11 30 -3 156 -19 280 -36 124 -16
241 -31 260 -33 19 -3 55 -8 80 -12 25 -3 47 -6 50 -5 3 0 55 -6 115 -14 61
-8 128 -17 150 -20 22 -3 92 -12 155 -20 63 -8 133 -17 155 -20 22 -2 56 -7
75 -10 19 -3 55 -8 79 -10 24 -3 303 -38 620 -80 317 -41 596 -77 621 -80 25
-2 461 -59 970 -125 509 -66 945 -122 970 -125 101 -11 3077 -395 3102 -400
22 -4 48 -43 171 -257 80 -139 211 -366 291 -505 80 -138 212 -366 292 -505
80 -138 196 -338 256 -444 105 -182 112 -192 137 -187 14 3 370 51 791 108
663 88 765 104 768 119 2 9 7 17 12 17 5 0 7 8 3 18 -3 9 -2 14 2 10 10 -10
-16 -54 366 610 177 306 325 561 330 566 5 6 118 -5 291 -28 156 -20 301 -39
323 -41 22 -2 79 -10 127 -16 48 -6 93 -9 100 -6 14 5 80 114 212 352 43 77
86 151 96 165 9 14 20 35 24 48 4 12 11 22 16 22 5 0 14 16 20 35 6 19 16 35
21 35 5 0 9 5 9 11 0 11 98 189 109 199 7 6 35 54 53 90 29 58 183 326 195
338 7 7 13 17 13 22 0 5 23 49 51 97 28 48 67 117 87 153 19 36 38 67 41 70 3
3 14 21 25 40 10 19 33 62 51 95 34 64 34 64 -1 140 -12 28 -95 223 -183 434
l-160 384 73 126 c71 123 579 1002 1591 2756 276 479 730 1265 1008 1747 279
483 507 882 507 888 0 8 -242 324 -838 1095 -119 154 -125 160 -160 161 -20 1
-1155 2 -2522 3 l-2485 1 -32 83 c-17 45 -64 159 -103 252 -39 94 -88 208
-107 255 -19 47 -49 117 -65 155 -28 63 -43 99 -67 160 -5 11 -25 58 -45 105
-19 47 -40 98 -46 114 -10 28 -157 379 -185 441 -7 17 -22 53 -33 80 -22 56
-166 404 -187 450 -7 17 -55 129 -105 250 -50 121 -113 272 -140 335 -49 117
-284 681 -880 2110 l-336 805 -1034 0 c-569 0 -1049 -1 -1067 -3z m36 -677
c17 -170 49 -497 71 -725 23 -228 49 -500 60 -605 10 -104 25 -253 32 -330
l13 -140 61 -90 c35 -49 115 -166 179 -260 64 -93 149 -217 189 -275 77 -113
285 -414 375 -545 30 -44 104 -152 164 -240 61 -88 165 -239 231 -335 169
-246 273 -398 331 -482 28 -40 164 -239 304 -443 139 -203 266 -387 283 -407
l29 -38 -1869 0 c-1487 0 -1871 -3 -1875 -12 -3 -7 -138 -336 -300 -730 -163
-395 -294 -727 -292 -737 6 -30 25 -62 34 -57 4 3 21 -9 37 -27 l29 -32 -32
29 c-18 17 -33 27 -33 23 0 -7 806 -1403 2718 -4712 226 -390 409 -711 407
-713 -3 -3 -345 -31 -1065 -87 -179 -14 -350 -27 -380 -30 -30 -3 -233 -19
-450 -35 -217 -17 -417 -32 -445 -35 -46 -4 -203 -17 -765 -60 -107 -9 -247
-20 -310 -25 -63 -5 -151 -12 -195 -15 -44 -3 -132 -10 -195 -15 -63 -6 -176
-14 -250 -20 -74 -6 -157 -12 -185 -15 -27 -2 -86 -7 -130 -10 -44 -3 -102 -8
-130 -10 -27 -2 -79 -7 -115 -9 -36 -3 -92 -8 -125 -11 -242 -20 -319 -26
-380 -30 -133 -10 -191 -15 -320 -25 -71 -6 -161 -12 -200 -15 -38 -3 -90 -8
-115 -10 -25 -3 -76 -7 -115 -10 -143 -9 -231 -16 -275 -20 -25 -3 -106 -10
-180 -15 -74 -6 -155 -12 -180 -15 -25 -2 -83 -7 -130 -10 -167 -12 -273 -20
-390 -30 -19 -2 -80 -6 -135 -9 -55 -4 -113 -8 -130 -11 -16 -2 -66 -7 -110
-10 -44 -3 -102 -8 -130 -10 -27 -3 -79 -7 -115 -10 -36 -2 -121 -9 -190 -15
-69 -5 -154 -12 -190 -15 -36 -3 -99 -8 -140 -10 -41 -3 -100 -8 -130 -10
-145 -13 -180 -15 -245 -20 -109 -8 -195 -15 -255 -21 l-55 -6 25 21 c14 11
30 25 37 31 7 5 16 10 20 10 5 0 20 11 35 25 15 14 31 25 36 25 5 0 19 11 32
25 13 14 27 25 32 25 8 0 20 9 53 38 7 6 18 12 23 12 6 0 12 4 14 8 2 5 41 35
88 68 47 32 91 64 98 71 7 7 16 13 20 13 4 0 20 11 36 25 16 14 32 25 35 25 3
0 22 14 41 30 19 16 38 30 41 30 4 0 22 13 40 30 19 16 38 30 42 30 7 0 20 9
52 37 7 7 18 13 23 13 5 0 17 9 27 20 11 12 36 31 57 42 21 12 38 25 38 30 0
4 6 8 13 8 6 0 30 16 52 35 22 20 48 38 58 41 9 3 17 10 17 15 0 5 5 9 10 9
10 0 21 7 53 36 7 6 44 33 82 59 67 45 108 75 130 93 6 5 24 17 40 28 17 10
36 25 43 32 8 7 26 19 40 26 15 8 36 23 46 35 11 12 23 21 28 21 5 0 21 11 36
25 15 14 32 25 38 25 6 0 21 11 34 25 13 14 28 25 34 25 6 0 23 11 38 25 15
14 31 25 35 25 5 0 20 11 35 25 15 14 30 25 33 25 3 0 18 11 33 25 15 14 30
25 35 25 4 0 20 11 35 25 15 14 31 25 35 25 5 0 15 7 23 15 12 11 650 1336
814 1690 15 33 67 141 115 240 48 99 95 198 105 220 10 22 73 155 140 295 67
140 143 298 167 350 77 161 138 290 198 415 32 66 74 156 95 200 21 44 67 141
102 215 79 164 140 293 181 380 16 36 66 139 110 230 99 204 121 253 119 263
-1 4 2 7 7 7 5 0 13 10 16 23 9 26 70 158 165 352 64 130 93 193 237 495 96
202 130 271 213 445 45 94 94 195 107 225 14 30 59 125 100 210 42 85 92 191
113 235 21 44 63 134 95 200 32 66 80 167 107 225 28 58 80 166 115 240 36 74
103 214 148 310 46 96 115 243 155 325 40 83 89 186 110 230 21 44 65 136 97
205 33 69 175 366 316 660 140 294 305 641 367 770 62 129 131 276 155 325 96
204 228 480 305 640 45 94 117 244 160 335 66 141 177 373 360 755 l43 90 18
-170 c10 -93 31 -309 48 -480z m9348 -4931 c-3 -3 -12 -4 -19 -1 -8 3 -5 6 6
6 11 1 17 -2 13 -5z m-50 -10 c-3 -3 -12 -4 -19 -1 -8 3 -5 6 6 6 11 1 17 -2
13 -5z m-140 -30 c-3 -3 -12 -4 -19 -1 -8 3 -5 6 6 6 11 1 17 -2 13 -5z m213
3 c0 -2 -19 -21 -42 -42 l-43 -40 40 43 c36 39 45 47 45 39z m-263 -13 c-3 -3
-12 -4 -19 -1 -8 3 -5 6 6 6 11 1 17 -2 13 -5z m-190 -40 c-3 -3 -12 -4 -19
-1 -8 3 -5 6 6 6 11 1 17 -2 13 -5z m-190 -40 c-3 -3 -12 -4 -19 -1 -8 3 -5 6
6 6 11 1 17 -2 13 -5z m-190 -40 c-3 -3 -12 -4 -19 -1 -8 3 -5 6 6 6 11 1 17
-2 13 -5z m653 -39 c-24 -25 -46 -45 -49 -45 -3 0 15 20 39 45 24 25 46 45 49
45 3 0 -15 -20 -39 -45z m-703 29 c-3 -3 -12 -4 -19 -1 -8 3 -5 6 6 6 11 1 17
-2 13 -5z m-140 -30 c-3 -3 -12 -4 -19 -1 -8 3 -5 6 6 6 11 1 17 -2 13 -5z
m-50 -10 c-3 -3 -12 -4 -19 -1 -8 3 -5 6 6 6 11 1 17 -2 13 -5z m-140 -30 c-3
-3 -12 -4 -19 -1 -8 3 -5 6 6 6 11 1 17 -2 13 -5z m-50 -10 c-3 -3 -12 -4 -19
-1 -8 3 -5 6 6 6 11 1 17 -2 13 -5z m-190 -40 c-3 -3 -12 -4 -19 -1 -8 3 -5 6
6 6 11 1 17 -2 13 -5z m1163 -7 c0 -2 -19 -21 -42 -42 l-43 -40 40 43 c36 39
45 47 45 39z m-1353 -33 c-3 -3 -12 -4 -19 -1 -8 3 -5 6 6 6 11 1 17 -2 13 -5z
m-50 -10 c-3 -3 -12 -4 -19 -1 -8 3 -5 6 6 6 11 1 17 -2 13 -5z m-140 -30 c-3
-3 -12 -4 -19 -1 -8 3 -5 6 6 6 11 1 17 -2 13 -5z m-50 -10 c-3 -3 -12 -4 -19
-1 -8 3 -5 6 6 6 11 1 17 -2 13 -5z m-140 -30 c-3 -3 -12 -4 -19 -1 -8 3 -5 6
6 6 11 1 17 -2 13 -5z m-50 -10 c-3 -3 -12 -4 -19 -1 -8 3 -5 6 6 6 11 1 17
-2 13 -5z m1603 -49 c-24 -25 -46 -45 -49 -45 -3 0 15 20 39 45 24 25 46 45
49 45 3 0 -15 -20 -39 -45z m-1793 9 c-3 -3 -12 -4 -19 -1 -8 3 -5 6 6 6 11 1
17 -2 13 -5z m-190 -40 c-3 -3 -12 -4 -19 -1 -8 3 -5 6 6 6 11 1 17 -2 13 -5z
m-190 -40 c-3 -3 -12 -4 -19 -1 -8 3 -5 6 6 6 11 1 17 -2 13 -5z m-50 -10 c-3
-3 -12 -4 -19 -1 -8 3 -5 6 6 6 11 1 17 -2 13 -5z m2113 -17 c0 -2 -19 -21
-42 -42 l-43 -40 40 43 c36 39 45 47 45 39z m-2253 -13 c-3 -3 -12 -4 -19 -1
-8 3 -5 6 6 6 11 1 17 -2 13 -5z m-50 -10 c-3 -3 -12 -4 -19 -1 -8 3 -5 6 6 6
11 1 17 -2 13 -5z m-190 -40 c-3 -3 -12 -4 -19 -1 -8 3 -5 6 6 6 11 1 17 -2
13 -5z m-190 -40 c-3 -3 -12 -4 -19 -1 -8 3 -5 6 6 6 11 1 17 -2 13 -5z m2503
-69 c-24 -25 -46 -45 -49 -45 -3 0 15 20 39 45 24 25 46 45 49 45 3 0 -15 -20
-39 -45z m-2693 29 c-3 -3 -12 -4 -19 -1 -8 3 -5 6 6 6 11 1 17 -2 13 -5z
m-50 -10 c-3 -3 -12 -4 -19 -1 -8 3 -5 6 6 6 11 1 17 -2 13 -5z m-140 -30 c-3
-3 -12 -4 -19 -1 -8 3 -5 6 6 6 11 1 17 -2 13 -5z m-50 -10 c-3 -3 -12 -4 -19
-1 -8 3 -5 6 6 6 11 1 17 -2 13 -5z m-140 -30 c-3 -3 -12 -4 -19 -1 -8 3 -5 6
6 6 11 1 17 -2 13 -5z m-50 -10 c-3 -3 -12 -4 -19 -1 -8 3 -5 6 6 6 11 1 17
-2 13 -5z m-190 -40 c-3 -3 -12 -4 -19 -1 -8 3 -5 6 6 6 11 1 17 -2 13 -5z
m3203 3 c0 -2 -19 -21 -42 -42 l-43 -40 40 43 c36 39 45 47 45 39z m-3393 -43
c-3 -3 -12 -4 -19 -1 -8 3 -5 6 6 6 11 1 17 -2 13 -5z m-50 -10 c-3 -3 -12 -4
-19 -1 -8 3 -5 6 6 6 11 1 17 -2 13 -5z m-140 -30 c-3 -3 -12 -4 -19 -1 -8 3
-5 6 6 6 11 1 17 -2 13 -5z m-50 -10 c-3 -3 -12 -4 -19 -1 -8 3 -5 6 6 6 11 1
17 -2 13 -5z m3453 -79 c-24 -25 -46 -45 -49 -45 -3 0 15 20 39 45 24 25 46
45 49 45 3 0 -15 -20 -39 -45z m-110 -98 c0 -2 -19 -21 -42 -42 l-43 -40 40
43 c36 39 45 47 45 39z m-5103 -193 c-3 -3 -12 -4 -19 -1 -8 3 -5 6 6 6 11 1
17 -2 13 -5z m-50 -10 c-3 -3 -12 -4 -19 -1 -8 3 -5 6 6 6 11 1 17 -2 13 -5z
m-140 -30 c-3 -3 -12 -4 -19 -1 -8 3 -5 6 6 6 11 1 17 -2 13 -5z m-50 -10 c-3
-3 -12 -4 -19 -1 -8 3 -5 6 6 6 11 1 17 -2 13 -5z m-140 -30 c-3 -3 -12 -4
-19 -1 -8 3 -5 6 6 6 11 1 17 -2 13 -5z m-50 -10 c-3 -3 -12 -4 -19 -1 -8 3
-5 6 6 6 11 1 17 -2 13 -5z m-190 -40 c-3 -3 -12 -4 -19 -1 -8 3 -5 6 6 6 11
1 17 -2 13 -5z m-50 -10 c-3 -3 -12 -4 -19 -1 -8 3 -5 6 6 6 11 1 17 -2 13 -5z
m-140 -30 c-3 -3 -12 -4 -19 -1 -8 3 -5 6 6 6 11 1 17 -2 13 -5z m-50 -10 c-3
-3 -12 -4 -19 -1 -8 3 -5 6 6 6 11 1 17 -2 13 -5z m-140 -30 c-3 -3 -12 -4
-19 -1 -8 3 -5 6 6 6 11 1 17 -2 13 -5z m-50 -10 c-3 -3 -12 -4 -19 -1 -8 3
-5 6 6 6 11 1 17 -2 13 -5z m-140 -30 c-3 -3 -12 -4 -19 -1 -8 3 -5 6 6 6 11
1 17 -2 13 -5z m-50 -10 c-3 -3 -12 -4 -19 -1 -8 3 -5 6 6 6 11 1 17 -2 13 -5z
m-190 -40 c-3 -3 -12 -4 -19 -1 -8 3 -5 6 6 6 11 1 17 -2 13 -5z m-3537 -29
c13 -14 21 -25 18 -25 -2 0 -15 11 -28 25 -13 14 -21 25 -18 25 2 0 15 -11 28
-25z m3347 -11 c-3 -3 -12 -4 -19 -1 -8 3 -5 6 6 6 11 1 17 -2 13 -5z m-50
-10 c-3 -3 -12 -4 -19 -1 -8 3 -5 6 6 6 11 1 17 -2 13 -5z m-140 -30 c-3 -3
-12 -4 -19 -1 -8 3 -5 6 6 6 11 1 17 -2 13 -5z m-50 -10 c-3 -3 -12 -4 -19 -1
-8 3 -5 6 6 6 11 1 17 -2 13 -5z m-3017 -39 c13 -14 21 -25 18 -25 -2 0 -15
11 -28 25 -13 14 -21 25 -18 25 2 0 15 -11 28 -25z m2877 9 c-3 -3 -12 -4 -19
-1 -8 3 -5 6 6 6 11 1 17 -2 13 -5z m-50 -10 c-3 -3 -12 -4 -19 -1 -8 3 -5 6
6 6 11 1 17 -2 13 -5z m-190 -40 c-3 -3 -12 -4 -19 -1 -8 3 -5 6 6 6 11 1 17
-2 13 -5z m-2551 -56 l29 -33 -32 29 c-18 17 -33 31 -33 33 0 8 8 1 36 -29z
m2361 16 c-3 -3 -12 -4 -19 -1 -8 3 -5 6 6 6 11 1 17 -2 13 -5z m-50 -10 c-3
-3 -12 -4 -19 -1 -8 3 -5 6 6 6 11 1 17 -2 13 -5z m-140 -30 c-3 -3 -12 -4
-19 -1 -8 3 -5 6 6 6 11 1 17 -2 13 -5z m-50 -10 c-3 -3 -12 -4 -19 -1 -8 3
-5 6 6 6 11 1 17 -2 13 -5z m-140 -30 c-3 -3 -12 -4 -19 -1 -8 3 -5 6 6 6 11
1 17 -2 13 -5z m-1897 -29 c13 -14 21 -25 18 -25 -2 0 -15 11 -28 25 -13 14
-21 25 -18 25 2 0 15 -11 28 -25z m1847 19 c-3 -3 -12 -4 -19 -1 -8 3 -5 6 6
6 11 1 17 -2 13 -5z m-140 -30 c-3 -3 -12 -4 -19 -1 -8 3 -5 6 6 6 11 1 17 -2
13 -5z m-50 -10 c-3 -3 -12 -4 -19 -1 -8 3 -5 6 6 6 11 1 17 -2 13 -5z m-190
-40 c-3 -3 -12 -4 -19 -1 -8 3 -5 6 6 6 11 1 17 -2 13 -5z m-50 -10 c-3 -3
-12 -4 -19 -1 -8 3 -5 6 6 6 11 1 17 -2 13 -5z m-1327 -29 c13 -14 21 -25 18
-25 -2 0 -15 11 -28 25 -13 14 -21 25 -18 25 2 0 15 -11 28 -25z m86 -97 l29
-33 -32 29 c-31 28 -38 36 -30 36 2 0 16 -15 33 -32z m84 -93 c13 -14 21 -25
18 -25 -2 0 -15 11 -28 25 -13 14 -21 25 -18 25 2 0 15 -11 28 -25z m90 -100
c13 -14 21 -25 18 -25 -2 0 -15 11 -28 25 -13 14 -21 25 -18 25 2 0 15 -11 28
-25z m86 -97 l29 -33 -32 29 c-31 28 -38 36 -30 36 2 0 16 -15 33 -32z m84
-93 c13 -14 21 -25 18 -25 -2 0 -15 11 -28 25 -13 14 -21 25 -18 25 2 0 15
-11 28 -25z m86 -97 l29 -33 -32 29 c-31 28 -38 36 -30 36 2 0 16 -15 33 -32z
m84 -93 c13 -14 21 -25 18 -25 -2 0 -15 11 -28 25 -13 14 -21 25 -18 25 2 0
15 -11 28 -25z m90 -100 c13 -14 21 -25 18 -25 -2 0 -15 11 -28 25 -13 14 -21
25 -18 25 2 0 15 -11 28 -25z m86 -97 l29 -33 -32 29 c-31 28 -38 36 -30 36 2
0 16 -15 33 -32z m84 -93 c13 -14 21 -25 18 -25 -2 0 -15 11 -28 25 -13 14
-21 25 -18 25 2 0 15 -11 28 -25z m90 -100 c13 -14 21 -25 18 -25 -2 0 -15 11
-28 25 -13 14 -21 25 -18 25 2 0 15 -11 28 -25z m86 -97 l29 -33 -32 29 c-31
28 -38 36 -30 36 2 0 16 -15 33 -32z m84 -93 c13 -14 21 -25 18 -25 -2 0 -15
11 -28 25 -13 14 -21 25 -18 25 2 0 15 -11 28 -25z m86 -97 l29 -33 -32 29
c-31 28 -38 36 -30 36 2 0 16 -15 33 -32z m84 -93 c13 -14 21 -25 18 -25 -2 0
-15 11 -28 25 -13 14 -21 25 -18 25 2 0 15 -11 28 -25z m90 -100 c13 -14 21
-25 18 -25 -2 0 -15 11 -28 25 -13 14 -21 25 -18 25 2 0 15 -11 28 -25z m86
-97 l29 -33 -32 29 c-31 28 -38 36 -30 36 2 0 16 -15 33 -32z m84 -93 c13 -14
21 -25 18 -25 -2 0 -15 11 -28 25 -13 14 -21 25 -18 25 2 0 15 -11 28 -25z
m90 -100 c13 -14 21 -25 18 -25 -2 0 -15 11 -28 25 -13 14 -21 25 -18 25 2 0
15 -11 28 -25z m86 -97 l29 -33 -32 29 c-31 28 -38 36 -30 36 2 0 16 -15 33
-32z m84 -93 c13 -14 21 -25 18 -25 -2 0 -15 11 -28 25 -13 14 -21 25 -18 25
2 0 15 -11 28 -25z m86 -97 l29 -33 -32 29 c-31 28 -38 36 -30 36 2 0 16 -15
33 -32z m84 -93 c13 -14 21 -25 18 -25 -2 0 -15 11 -28 25 -13 14 -21 25 -18
25 2 0 15 -11 28 -25z m90 -100 c13 -14 21 -25 18 -25 -2 0 -15 11 -28 25 -13
14 -21 25 -18 25 2 0 15 -11 28 -25z m86 -97 l29 -33 -32 29 c-31 28 -38 36
-30 36 2 0 16 -15 33 -32z m84 -93 c13 -14 21 -25 18 -25 -2 0 -15 11 -28 25
-13 14 -21 25 -18 25 2 0 15 -11 28 -25z m90 -100 c13 -14 21 -25 18 -25 -2 0
-15 11 -28 25 -13 14 -21 25 -18 25 2 0 15 -11 28 -25z m86 -97 l29 -33 -32
29 c-31 28 -38 36 -30 36 2 0 16 -15 33 -32z m84 -93 c13 -14 21 -25 18 -25
-2 0 -15 11 -28 25 -13 14 -21 25 -18 25 2 0 15 -11 28 -25z m90 -100 c13 -14
21 -25 18 -25 -2 0 -15 11 -28 25 -13 14 -21 25 -18 25 2 0 15 -11 28 -25z
m80 -90 c13 -14 21 -25 18 -25 -2 0 -15 11 -28 25 -13 14 -21 25 -18 25 2 0
15 -11 28 -25z m90 -100 c13 -14 21 -25 18 -25 -2 0 -15 11 -28 25 -13 14 -21
25 -18 25 2 0 15 -11 28 -25z m86 -97 l29 -33 -32 29 c-31 28 -38 36 -30 36 2
0 16 -15 33 -32z m84 -93 c13 -14 21 -25 18 -25 -2 0 -15 11 -28 25 -13 14
-21 25 -18 25 2 0 15 -11 28 -25z m90 -100 c13 -14 21 -25 18 -25 -2 0 -15 11
-28 25 -13 14 -21 25 -18 25 2 0 15 -11 28 -25z m5180 -55 c0 -5 -2 -10 -4
-10 -3 0 -8 5 -11 10 -3 6 -1 10 4 10 6 0 11 -4 11 -10z m-5094 -42 l29 -33
-32 29 c-31 28 -38 36 -30 36 2 0 16 -15 33 -32z m84 -93 c13 -14 21 -25 18
-25 -2 0 -15 11 -28 25 -13 14 -21 25 -18 25 2 0 15 -11 28 -25z m90 -100 c13
-14 21 -25 18 -25 -2 0 -15 11 -28 25 -13 14 -21 25 -18 25 2 0 15 -11 28 -25z
m86 -97 l29 -33 -32 29 c-31 28 -38 36 -30 36 2 0 16 -15 33 -32z m84 -93 c13
-14 21 -25 18 -25 -2 0 -15 11 -28 25 -13 14 -21 25 -18 25 2 0 15 -11 28 -25z
m86 -97 l29 -33 -32 29 c-31 28 -38 36 -30 36 2 0 16 -15 33 -32z m84 -93 c13
-14 21 -25 18 -25 -2 0 -15 11 -28 25 -13 14 -21 25 -18 25 2 0 15 -11 28 -25z
m90 -100 c13 -14 21 -25 18 -25 -2 0 -15 11 -28 25 -13 14 -21 25 -18 25 2 0
15 -11 28 -25z m86 -97 l29 -33 -32 29 c-31 28 -38 36 -30 36 2 0 16 -15 33
-32z m84 -93 c13 -14 21 -25 18 -25 -2 0 -15 11 -28 25 -13 14 -21 25 -18 25
2 0 15 -11 28 -25z m90 -100 c13 -14 21 -25 18 -25 -2 0 -15 11 -28 25 -13 14
-21 25 -18 25 2 0 15 -11 28 -25z m86 -97 l29 -33 -32 29 c-31 28 -38 36 -30
36 2 0 16 -15 33 -32z m84 -93 c13 -14 21 -25 18 -25 -2 0 -15 11 -28 25 -13
14 -21 25 -18 25 2 0 15 -11 28 -25z m2707 19 c-3 -3 -12 -4 -19 -1 -8 3 -5 6
6 6 11 1 17 -2 13 -5z m-109 -11 c-10 -2 -26 -2 -35 0 -10 3 -2 5 17 5 19 0
27 -2 18 -5z m-130 -10 c-10 -2 -26 -2 -35 0 -10 3 -2 5 17 5 19 0 27 -2 18
-5z m-120 -10 c-10 -2 -26 -2 -35 0 -10 3 -2 5 17 5 19 0 27 -2 18 -5z m-130
-10 c-10 -2 -26 -2 -35 0 -10 3 -2 5 17 5 19 0 27 -2 18 -5z m-130 -10 c-10
-2 -26 -2 -35 0 -10 3 -2 5 17 5 19 0 27 -2 18 -5z m-120 -10 c-10 -2 -28 -2
-40 0 -13 2 -5 4 17 4 22 1 32 -1 23 -4z m-130 -10 c-10 -2 -26 -2 -35 0 -10
3 -2 5 17 5 19 0 27 -2 18 -5z m-130 -10 c-10 -2 -26 -2 -35 0 -10 3 -2 5 17
5 19 0 27 -2 18 -5z m-1622 -35 l29 -33 -32 29 c-31 28 -38 36 -30 36 2 0 16
-15 33 -32z m1492 25 c-10 -2 -26 -2 -35 0 -10 3 -2 5 17 5 19 0 27 -2 18 -5z
m-120 -10 c-10 -2 -26 -2 -35 0 -10 3 -2 5 17 5 19 0 27 -2 18 -5z m-130 -10
c-10 -2 -26 -2 -35 0 -10 3 -2 5 17 5 19 0 27 -2 18 -5z m-130 -10 c-10 -2
-26 -2 -35 0 -10 3 -2 5 17 5 19 0 27 -2 18 -5z m-120 -10 c-10 -2 -26 -2 -35
0 -10 3 -2 5 17 5 19 0 27 -2 18 -5z m-130 -10 c-10 -2 -26 -2 -35 0 -10 3 -2
5 17 5 19 0 27 -2 18 -5z m-130 -10 c-10 -2 -26 -2 -35 0 -10 3 -2 5 17 5 19
0 27 -2 18 -5z m-120 -10 c-10 -2 -28 -2 -40 0 -13 2 -5 4 17 4 22 1 32 -1 23
-4z m-130 -10 c-10 -2 -26 -2 -35 0 -10 3 -2 5 17 5 19 0 27 -2 18 -5z m-130
-10 c-10 -2 -26 -2 -35 0 -10 3 -2 5 17 5 19 0 27 -2 18 -5z m-257 -21 c-13
-2 -27 0 -32 5 -6 6 3 7 23 4 28 -4 29 -6 9 -9z m127 11 c-10 -2 -26 -2 -35 0
-10 3 -2 5 17 5 19 0 27 -2 18 -5z m4405 -464 c120 -174 217 -321 217 -327 0
-6 6 -12 13 -15 6 -2 9 -7 6 -11 -6 -6 -347 142 -441 190 -15 8 -30 14 -33 14
-3 0 -29 12 -58 27 -28 15 -54 27 -57 28 -5 0 -90 36 -98 41 -2 1 29 57 69
125 39 68 89 155 111 192 22 38 43 65 47 60 5 -4 105 -150 224 -324z m-2640
-1976 c-7 -2 -21 -2 -30 0 -10 3 -4 5 12 5 17 0 24 -2 18 -5z m80 -10 c-7 -2
-19 -2 -25 0 -7 3 -2 5 12 5 14 0 19 -2 13 -5z m80 -10 c-7 -2 -19 -2 -25 0
-7 3 -2 5 12 5 14 0 19 -2 13 -5z m70 -10 c-7 -2 -19 -2 -25 0 -7 3 -2 5 12 5
14 0 19 -2 13 -5z m80 -10 c-7 -2 -19 -2 -25 0 -7 3 -2 5 12 5 14 0 19 -2 13
-5z m80 -10 c-7 -2 -19 -2 -25 0 -7 3 -2 5 12 5 14 0 19 -2 13 -5z m80 -10
c-7 -2 -21 -2 -30 0 -10 3 -4 5 12 5 17 0 24 -2 18 -5z m-486 -25 c-3 -8 -6
-5 -6 6 -1 11 2 17 5 13 3 -3 4 -12 1 -19z m556 15 c-7 -2 -19 -2 -25 0 -7 3
-2 5 12 5 14 0 19 -2 13 -5z m80 -10 c-7 -2 -19 -2 -25 0 -7 3 -2 5 12 5 14 0
19 -2 13 -5z m87 -12 c0 -5 -9 -7 -20 -4 -11 3 -20 7 -20 9 0 2 9 4 20 4 11 0
20 -4 20 -9z m-693 -123 c-3 -8 -6 -5 -6 6 -1 11 2 17 5 13 3 -3 4 -12 1 -19z
m30 -130 c-3 -8 -6 -5 -6 6 -1 11 2 17 5 13 3 -3 4 -12 1 -19z m30 -130 c-3
-8 -6 -5 -6 6 -1 11 2 17 5 13 3 -3 4 -12 1 -19z m30 -130 c-3 -8 -6 -5 -6 6
-1 11 2 17 5 13 3 -3 4 -12 1 -19z m30 -130 c-3 -8 -6 -5 -6 6 -1 11 2 17 5
13 3 -3 4 -12 1 -19z"/>
</g>
</svg>
